<svg xmlns="http://www.w3.org/2000/svg" version="1.1" xmlns:xlink="http://www.w3.org/1999/xlink" xmlns:svgjs="http://svgjs.dev/svgjs" width="1000" height="1000"><g clip-path="url(#SvgjsClipPath1010)"><rect width="1000" height="1000" fill="#ffffff"></rect><g transform="matrix(1.3671875,0,0,1.3671875,150,150)"><svg xmlns="http://www.w3.org/2000/svg" version="1.1" xmlns:xlink="http://www.w3.org/1999/xlink" xmlns:svgjs="http://svgjs.dev/svgjs" width="512" height="512"><svg version="1.1" xmlns="http://www.w3.org/2000/svg" width="512" height="512" viewBox="0 0 512 512" fill="none">
	<path d="M384 352h-50.745l-80-80 80-80h50.745v80l112-112-112-112v80h-64c-8.487 0-16.626 3.372-22.627 9.373l-89.373 89.372-89.373-89.373c-6-6-14.14-9.372-22.627-9.372h-96v64h82.745l80 80-80 80h-82.745v64h96c8.487 0 16.626-3.371 22.627-9.373l89.373-89.372 89.373 89.372c6.001 6.002 14.14 9.373 22.627 9.373h64v80l112-112-112-112v80z" fill="#3a40e1"></path>
</svg></svg></g></g><defs><clipPath id="SvgjsClipPath1010"><rect width="1000" height="1000" x="0" y="0" rx="350" ry="350"></rect></clipPath></defs></svg>